<svg xmlns="http://www.w3.org/2000/svg" xmlns:xlink="http://www.w3.org/1999/xlink" id="Capa_1" x="0px" y="0px" viewBox="0 0 183.62 67.63" style="enable-background:new 0 0 183.62 67.63;" xml:space="preserve">
<style type="text/css">
	.st0{fill:#FFFFFF;}
</style>
<g>
	<path class="st0" d="M134.68,32.83c0.3,0.02,0.33,0.1,0.33,0.18v4.73c0,0.1-0.03,0.16-0.33,0.18v0.12h2.5v-0.12   c-0.3-0.02-0.34-0.08-0.34-0.18v-4.73c0-0.08,0.04-0.16,0.34-0.18v-0.12h-2.5V32.83z"/>
	<path class="st0" d="M145.84,32.72h-6.08v0.12c0.32,0.02,0.35,0.1,0.35,0.18v4.73c0,0.1-0.03,0.16-0.35,0.18v0.12h6.08   c0.14,0,0.18,0.05,0.22,0.22h0.14V36.5h-0.14c-0.04,0.25-0.08,0.31-0.22,0.31h-3.9v-0.94h2.26c0.25,0,0.33,0.11,0.37,0.23h0.14   v-1.58h-0.14c-0.04,0.13-0.12,0.23-0.37,0.23h-2.26v-0.84h3.9c0.14,0,0.18,0.04,0.22,0.28h0.14v-1.76h-0.14   C146.02,32.66,145.98,32.72,145.84,32.72z"/>
	<path class="st0" d="M154.75,36.81h-4.21v-3.8c0-0.08,0.04-0.16,0.35-0.18v-0.12h-2.51v0.12c0.3,0.03,0.34,0.1,0.34,0.18v4.73   c0,0.1-0.04,0.16-0.34,0.18v0.12h6.37c0.12,0,0.18,0.05,0.22,0.27h0.15v-1.78h-0.15C154.93,36.76,154.87,36.81,154.75,36.81z"/>
	<path class="st0" d="M161.02,32.72h-4.04v0.12c0.3,0.02,0.33,0.09,0.33,0.18v4.73c0,0.1-0.04,0.16-0.33,0.18v0.12h3.9   c2.26,0,3.42-1.27,3.42-2.67C164.3,33.87,163.25,32.72,161.02,32.72z M160.69,36.85h-1.56v-2.94h1.56c1.28,0,1.8,0.6,1.8,1.47   C162.49,36.24,161.97,36.85,160.69,36.85z"/>
	<path class="st0" d="M167.76,34.14c0-0.23,0.37-0.48,1.42-0.48c1.14,0,2.54,0.29,2.54,0.54v0.11l0.15,0.06l0.84-1.41l-0.14-0.05   c-0.08,0.08-0.18,0.16-0.33,0.16c-0.33,0-1.53-0.43-3.21-0.43c-1.79,0-2.95,0.7-2.95,1.72c0,1.95,5.02,1.13,5.02,1.87   c0,0.44-0.56,0.69-1.78,0.69c-1.27,0-2.58-0.46-2.58-0.73l0.03-0.22l-0.11-0.05l-0.91,1.8l0.15,0.03l0.25-0.13   c0.27,0,1.17,0.47,3.21,0.47c2.65,0,3.43-0.96,3.43-1.83C172.8,33.94,167.76,35.05,167.76,34.14z"/>
	<path class="st0" d="M108.52,33.67h-1.56v2.94h1.56c1.28,0,1.82-0.61,1.82-1.47C110.34,34.28,109.81,33.67,108.52,33.67z"/>
	<path class="st0" d="M90.31,33.65c-1.06,0-2,0.54-2,1.49c0,0.96,0.94,1.49,2,1.49c1.06,0,2-0.53,2-1.49   C92.31,34.19,91.37,33.65,90.31,33.65z"/>
	<path class="st0" d="M131.85,29.65h-9.83v0.2c0.48,0.03,0.54,0.14,0.54,0.29v7.44c0,0.14-0.06,0.26-0.54,0.29v0.19h4.03v-0.19   c-0.48-0.03-0.54-0.14-0.54-0.29V34.9h4.26c0.21,0,0.29,0.07,0.34,0.43h0.24v-2.68h-0.24c-0.05,0.29-0.12,0.37-0.34,0.37h-4.26   V31.6h6.34c0.21,0,0.29,0.08,0.34,0.39h0.24v-2.78h-0.24C132.14,29.57,132.06,29.65,131.85,29.65z"/>
	<path class="st0" d="M117.89,26.46H66.06v13.86h51.82v-12.5h59.05v-1.36H117.89z M84.23,36.7c-1.74,0.8-3.82,1.2-6.18,1.2   c-3.21,0-6.23-1.4-6.23-4.29c0-2.89,3.03-4.29,6.23-4.29c1.27,0,1.82,0.08,3.13,0.39c0.63,0.14,1.24,0.41,1.39,0.41   c0.13,0,0.22-0.07,0.28-0.13l0.23,0.06l-1.24,2.11l-0.23-0.11l0.04-0.18c0-0.3-1.9-0.76-3.5-0.76c-1.82,0-3.49,0.82-3.49,2.54   c0,1.72,2.01,2.47,3.68,2.47c1.06,0,1.9-0.11,2.69-0.31v-1.05h-2.47c-0.22,0-0.28,0.13-0.29,0.33h-0.23v-2.24h0.23   c0.01,0.2,0.07,0.29,0.29,0.29h5.65v0.19c-0.23,0.02-0.3,0.09-0.3,0.27v2.65c0,0.14,0.04,0.27,0.23,0.27h0.1V36.7z M90.31,37.87   c-2.07,0-3.81-0.95-3.81-2.73c0-1.77,1.74-2.73,3.81-2.73c2.07,0,3.8,0.96,3.8,2.73C94.11,36.92,92.38,37.87,90.31,37.87z    M102.91,38.07h-0.15c-0.04-0.21-0.1-0.26-0.22-0.26h-6.37v-0.12c0.3-0.02,0.33-0.09,0.33-0.18v-4.73c0-0.09-0.03-0.16-0.33-0.18   v-0.12h2.51v0.12c-0.3,0.02-0.34,0.09-0.34,0.18v3.8h4.19c0.12,0,0.18-0.05,0.22-0.29h0.15V38.07z M108.71,37.81h-3.91v-0.13   c0.3-0.02,0.34-0.09,0.34-0.18v-4.73c0-0.09-0.04-0.16-0.34-0.18v-0.11h4.05c2.23,0,3.29,1.15,3.29,2.66   C112.13,36.53,110.97,37.81,108.71,37.81z"/>
	<path class="st0" d="M33.34,5.54c-5.71,0-10.99,1.82-15.31,4.92c-8,4.75-13.37,13.5-13.37,23.51c0,15.07,12.17,27.29,27.18,27.29   c12.34,0,22.76-8.27,26.07-19.58c1.17-2.99,1.82-6.24,1.82-9.65C59.72,17.39,47.9,5.54,33.34,5.54z M33.32,57.59   c-14.06,0-25.46-11.4-25.46-25.45S19.26,6.68,33.32,6.68c14.06,0,25.46,11.4,25.46,25.45S47.39,57.59,33.32,57.59z"/>
	<path class="st0" d="M47.29,21.59c0-0.02,0.19-0.6,0.09-2.46c-0.13-2.11-1.36-3.01-3.21-3.01c-1.96,0-3.14,2.67-4.44,4.02   l0.75,0.05l0,0l0,0l0,0c0.01,0,0.01,0,0.02-0.01c-0.01,0-0.01,0-0.02,0.01l-0.75-0.05c0,0,0.51,0.43,0.74,0.64   c0.01-0.01,2.9-1.1,4.4-0.84C45.55,20.05,46.66,20.72,47.29,21.59l-0.41-1.27c0,0,0,0-0.01-0.01c0,0,0,0,0.01,0.01c0,0,0,0,0,0   c0,0,0,0,0,0L47.29,21.59z M45.2,19.36c-0.07-0.01-0.14-0.02-0.21-0.03C45.06,19.34,45.13,19.35,45.2,19.36   c0.08,0.01,0.16,0.03,0.24,0.05C45.36,19.39,45.28,19.37,45.2,19.36z"/>
	<path class="st0" d="M42.38,24.27l-0.08-0.06c0,0,0,0.01,0,0.01c0,0,0,0,0,0l0,0c0.39,1.69,3.4,2.83,4.76,4.5l0,0   c0-0.03,0.28-1.45-0.04-2.46C46.47,24.58,43.58,25.08,42.38,24.27z M43.8,25.37l-0.15-0.12L43.8,25.37   c0.01,0.02,0.04,0.05,0.07,0.08c0.17,0.17,0.6,0.46,1.07,0.77C44.39,25.85,43.89,25.52,43.8,25.37z M46.55,27.43   c0,0-0.01-0.01-0.01-0.02C46.54,27.42,46.55,27.42,46.55,27.43l0.12,0.3L46.55,27.43z"/>
	<path class="st0" d="M43.41,30.87l0.45,1.44c0,0,0,0,0,0c0,0,0,0,0,0l0,0L43.41,30.87c0,0-0.28,1.3-0.2,2.43   c0.14,2.16,2.03,2.27,3.8,4.81l-0.54-1.5l0,0l0,0l0,0l0.54,1.5c0-0.03,0.28-1.39-0.37-3.38C46.15,33.27,43.41,30.87,43.41,30.87z    M43.85,33.51c0.23,1.07,1.66,1.87,2.47,2.88C45.51,35.38,44.08,34.59,43.85,33.51z"/>
	<path class="st0" d="M23.23,28.02l2.1,6.47l0,0c0,0,0,0,0,0v0l0,0c0.6-1.04,2.89-2.13,4.17-2.27l1.01-4.42l-0.7,0.51l0.7-0.52   c-0.15-0.21-0.32-0.33-0.49-0.38c-1.35,0.58-3.82-1.79-3.82-1.79l-0.05-0.02l0.05,0.02l0.34-0.43l5.4,0.75l-1.37,6.28h1.86   l0.68,1.1h0.15v0l0,0h0v0l0.65-1.1h1.86l-1.36-6.28l5.39-0.75l0.36,0.43c0,0-2.47,2.37-3.84,1.79c-0.17,0.05-0.33,0.17-0.49,0.38   l1.03,4.43l0,0c1.28,0.13,3.57,1.23,4.17,2.27l2.1-6.47l-0.68,0.23l-1.63,5.02c-0.93-0.73-2.26-1.32-3.27-1.55l-0.47,0.34   l0.47-0.34c1.01,0.23,2.34,0.82,3.27,1.55l0,0c0,0,0,0,0,0l0.83-2.54l0.8-2.48l0.68-0.23l-4.28-6.66H27.49L23.23,28.02z M29,31.72   L29,31.72L29,31.72l0.28-1.23l0.13-0.58L29,31.72c-0.19,0.04-0.38,0.1-0.59,0.16C28.61,31.82,28.81,31.76,29,31.72z M34.98,31.64   L34.98,31.64L34.98,31.64L34.98,31.64l-0.44-2.05L34.98,31.64z M40.65,25.47L40.65,25.47l-0.28,0.09L40.65,25.47z M39.79,24.62   l0.13,0.12L39.79,24.62l-6.14,0.85l0,0L39.79,24.62z M25.71,33.27l-0.17,0.53L25.71,33.27c0.02-0.01,0.04-0.03,0.05-0.04   C25.75,33.25,25.73,33.26,25.71,33.27z M32.89,25.47l-0.38,0.19L32.89,25.47l-6.14-0.85l-0.87,0.89l0,0l0.81-0.84l0.05-0.06   L32.89,25.47L32.89,25.47z"/>
	<path class="st0" d="M36.04,20.02l-0.03,0.01c3.27,0.34,4.23-1.93,5.37-3.3l0,0c0,0-1.05,0.04-2.14,0.04   c-1.09,0-1.59,1.01-1.59,1.01S36.6,19.57,36.04,20.02z M40.12,17.51L40.12,17.51l0.94-0.58L40.12,17.51   c-0.06,0.07-0.13,0.17-0.2,0.27C39.99,17.67,40.06,17.58,40.12,17.51L40.12,17.51z"/>
	<path class="st0" d="M31.73,36.81L31.73,36.81l0-1.24l0.6-0.73l-2.97-0.5l0,0l-0.1-0.93l-0.5,1.13l0,0l0,0l0.5-1.13   c0,0-3.2,1.08-3.16,2.48c0,1.89,2.52,3.56,2.52,3.56l0-0.03l0,0.03l3.72-2.38v-2.23l-0.6,0.73L31.73,36.81l-0.89,0.57L31.73,36.81   L31.73,36.81z M28.82,35.08l0-0.04L28.82,35.08L28.82,35.08z M28.82,35.08L28.82,35.08l0.18-0.25L28.82,35.08z"/>
	<path class="st0" d="M35.39,46.07c0.03,0.07,0.06,0.15,0.08,0.22c-0.05-0.12-0.09-0.24-0.14-0.35   C35.36,45.98,35.37,46.03,35.39,46.07l0.66,0c-0.25-0.78-0.56-1.55-0.5-2.39v0l0,0c-4.03,1.88-0.56,5.51-1.99,7.07l1.11-0.71l0,0   l0,0c0.01-0.01,0.03-0.02,0.04-0.03c-0.01,0.01-0.03,0.02-0.04,0.04l-1.11,0.71c0,0,2.47-0.11,2.84-2.77   c0.05-0.67-0.13-1.29-0.35-1.91L35.39,46.07z M34.86,49.86c0.02-0.02,0.03-0.03,0.05-0.05C34.89,49.82,34.88,49.84,34.86,49.86z    M35.84,48.12c0-0.03,0.01-0.05,0.01-0.08c0,0,0,0,0-0.01c0,0,0,0.01,0,0.01C35.85,48.07,35.85,48.09,35.84,48.12z"/>
	<path class="st0" d="M40.21,46.07c0.03-2.11-0.89-2.67-1.24-4.67h0c-0.05-0.32-0.09-0.67-0.1-1.08l-0.18,0.37l0.18-0.37   c-5.2,2.16,0.73,6.82-2.1,9.75l0,0l0,0c2.19-0.52,3.3-1.67,3.43-3.6C40.21,46.34,40.21,46.2,40.21,46.07l-0.74,0   c0,0.13,0.01,0.26,0.01,0.4c0.03,1.17-0.71,2.3-1.29,2.72l-1.15,0.72l1.15-0.72c0.59-0.42,1.33-1.54,1.29-2.72   c0-0.19-0.01-0.37-0.03-0.53c0-0.04-0.01-0.07-0.01-0.11c-0.01-0.14-0.03-0.28-0.06-0.41c0-0.02-0.01-0.04-0.01-0.05   c-0.03-0.15-0.06-0.29-0.1-0.43c0,0,0-0.01,0-0.01c-0.02-0.07-0.04-0.13-0.05-0.19c0.12,0.38,0.21,0.81,0.25,1.33H40.21z"/>
	<path class="st0" d="M32.8,46.07h-0.69c0,0.02,0,0.05,0,0.08c0-0.03,0-0.07-0.01-0.1c0,0.01,0,0.01,0,0.02L32.8,46.07   c-0.11-0.9-0.61-1.75-2.01-2.4l0.63,1.24l0,0l0,0l0,0l-0.64-1.24c0.13,1.5-0.93,2.78-0.83,4.3c0.37,2.65,2.82,2.77,2.84,2.77l0,0   c0,0,0,0,0,0l0,0l0,0C31.87,49.71,33.03,47.8,32.8,46.07z M31.71,45.17c0.02,0.02,0.03,0.04,0.04,0.06   C31.74,45.2,31.73,45.18,31.71,45.17z M31.94,45.5c-0.01-0.02-0.02-0.05-0.03-0.07c0.02,0.03,0.03,0.07,0.05,0.1   C31.95,45.52,31.94,45.51,31.94,45.5z"/>
	<path class="st0" d="M24.97,46.07h-0.09H24.97c-0.1-2.03,0.92-3.2,1.27-4.66l-0.21,0h0.21c0.23-0.97,0.18-2.07-0.72-3.63v0   c0,0,0,0,0,0c0,0,0,0,0,0v0c-2.14,3.33-5.99,7.24,0.04,10.79l-0.24-0.33l0.24,0.33C25.19,47.6,25.01,46.78,24.97,46.07z    M25.6,41.27c0.1-0.42,0.14-0.87,0.08-1.42c0-0.01,0-0.03,0-0.04c-0.01-0.12-0.04-0.25-0.07-0.38c-0.01-0.06-0.02-0.12-0.03-0.19   C25.76,40.06,25.74,40.7,25.6,41.27z M25.57,41.36c0,0.02-0.01,0.03-0.01,0.05h0c-0.02,0.07-0.04,0.15-0.07,0.22   C25.52,41.53,25.55,41.45,25.57,41.36z M24.36,44.8c0-0.02,0-0.04,0.01-0.07c0-0.02,0.01-0.03,0.01-0.04   C24.37,44.72,24.36,44.76,24.36,44.8z M24.41,46.28c0.02,0.11,0.03,0.22,0.06,0.34C24.44,46.51,24.42,46.4,24.41,46.28z    M24.45,44.24c0-0.01,0-0.02,0-0.02c0.01-0.03,0.02-0.06,0.03-0.09C24.47,44.17,24.46,44.2,24.45,44.24z M24.59,43.79   c0.01-0.02,0.01-0.04,0.02-0.05c0,0,0,0,0,0c0,0,0-0.01,0.01-0.01C24.6,43.74,24.59,43.76,24.59,43.79z"/>
	<path class="st0" d="M43.18,41.4c-0.66-1.26-1.61-2.48-2.35-3.63l0,0c0,0,0,0,0,0l0,0l0,0c-2.69,4.73,2.17,5.21-0.04,10.79l0,0   c0,0,0,0,0,0l0,0l0,0c1.38-0.82,2.25-1.65,2.72-2.5h-0.75c-0.06,0.11-0.12,0.22-0.19,0.32c0.1-0.15,0.18-0.3,0.25-0.45   c-0.02,0.04-0.04,0.08-0.06,0.12h0.76C44.41,44.52,44,42.94,43.18,41.4L43.18,41.4z M41.05,39.31c-0.03-0.04-0.06-0.09-0.08-0.13v0   l-0.01-0.12l0.01,0.12c0.13,0.2,0.26,0.4,0.39,0.6C41.25,39.62,41.15,39.46,41.05,39.31z M41.9,47.24l-0.75,0.9L41.9,47.24   L41.9,47.24L41.9,47.24c0.03-0.04,0.06-0.07,0.1-0.11C41.96,47.17,41.93,47.2,41.9,47.24z M43,45.5c0-0.01,0.01-0.03,0.01-0.04   c0,0,0-0.01,0-0.01C43.01,45.47,43,45.48,43,45.5z"/>
	<path class="st0" d="M24.61,35.89c-0.1-0.93-0.68-1.84-0.68-1.84l0,0c-0.46,2.64-4.36,3.65-3.96,7.19   c0.19,1.76,1.46,3.05,1.46,3.05l0,0c0,0,0,0,0,0l0,0l0,0c-0.18-0.87,0.24-1.86,0.8-2.89h0C23.27,39.57,24.8,37.59,24.61,35.89z    M21.44,44.3l-0.03-0.05l-0.38-2.02c0,0,0,0,0,0c0,0,0,0,0,0l0,0L21.44,44.3z M21.3,41.4L21.3,41.4c-0.01,0.02-0.02,0.05-0.04,0.07   c0.2-0.43,0.5-0.91,0.83-1.43c0.41-0.63,0.86-1.32,1.22-2.06C22.68,39.3,21.75,40.46,21.3,41.4z M23.98,35.88   c0.01-0.06,0.01-0.12,0.02-0.17v0C24,35.76,23.99,35.82,23.98,35.88z"/>
	<path class="st0" d="M29.1,46.07c0.46-1.68,1.13-3.38,0-4.67h0c-0.33-0.41-0.85-0.77-1.61-1.08l0,0c0,0,0,0,0,0l0,0l0,0   c-0.14,3.08-1.51,3.33-1.33,6.15c0.11,1.93,1.24,3.08,3.43,3.6l0,0C28.48,48.92,28.72,47.51,29.1,46.07l-0.72,0l0,0H29.1z    M28.12,47.55c0-0.03,0-0.06,0.01-0.08c0-0.01,0-0.03,0-0.04C28.13,47.47,28.13,47.51,28.12,47.55z M28.17,47.08   c0-0.01,0-0.03,0-0.04c0-0.01,0-0.03,0.01-0.04C28.18,47.03,28.17,47.05,28.17,47.08z M28.18,41.39   C28.18,41.39,28.18,41.39,28.18,41.39l-0.21-0.33L28.18,41.39L28.18,41.39C28.18,41.39,28.18,41.39,28.18,41.39z M28.36,49.19   c-0.01-0.03-0.02-0.06-0.03-0.09C28.34,49.13,28.35,49.16,28.36,49.19L28.36,49.19z M28.18,41.39l0.02,0.01h0   c0.76,0.68,0.87,1.46,0.75,2.31c0.01-0.11,0.02-0.21,0.03-0.31c0-0.02,0-0.05,0-0.07c0-0.08,0-0.17,0-0.25c0-0.02,0-0.03,0-0.05h0   C28.96,42.44,28.76,41.89,28.18,41.39z"/>
	<path class="st0" d="M37.24,16.77l-0.43,0.31L37.24,16.77l-1.89,0c-1.82,0-1.1,2.32-1.73,3.26l0.48-0.32l-0.48,0.32   C35.39,20.37,36.13,18.48,37.24,16.77z M35.83,18.09c-0.12,0.19-0.27,0.39-0.42,0.59C35.56,18.48,35.71,18.28,35.83,18.09z"/>
	<path class="st0" d="M44.13,27.77c0,0,0.09,1.93,0.28,2.72c0.22,0.79,1.95,1.47,2.6,2.55l-0.73-1.51c0,0,0,0,0,0l0,0c0,0,0,0,0,0   l0.73,1.51c0-0.06-0.13-2.57-0.59-3.35C45.97,28.91,44.13,27.77,44.13,27.77l0.7,1.33c0,0,0,0,0,0c0,0,0,0,0,0L44.13,27.77z    M45.09,30.52c0.13,0.25,0.45,0.46,0.76,0.68C45.54,30.98,45.22,30.77,45.09,30.52c-0.06-0.09-0.1-0.23-0.13-0.37   C44.99,30.29,45.03,30.42,45.09,30.52z"/>
	<path class="st0" d="M40.33,21.54c0.74,3.17,5.04,1.25,6.69,2.8l-0.92-1.19c0,0,0,0,0,0c0,0,0,0,0,0l0,0l0,0l0.92,1.19   c0-0.05,0.32-2.27-1.97-3.1C43.63,20.73,41.45,22.07,40.33,21.54l1.24,0.8l0,0l0,0c0.11,0.11,0.27,0.19,0.46,0.25   c0.56,0.19,1.4,0.23,2.18,0.27c-1.05-0.05-2.2-0.1-2.64-0.52L40.33,21.54z"/>
	<path class="st0" d="M19.3,28.73C19.3,28.73,19.3,28.73,19.3,28.73L19.3,28.73L19.3,28.73c1.37-1.68,4.39-2.83,4.76-4.52   l-1.34,1.16c-0.11,0.16-0.69,0.54-1.29,0.94c0.6-0.4,1.19-0.78,1.29-0.94l1.34-1.16c-1.15,0.9-4.16,0.33-4.72,2.06   C18.99,27.29,19.29,28.71,19.3,28.73L19.3,28.73z"/>
	<path class="st0" d="M21.46,19.94c1.51-0.25,4.39,0.83,4.42,0.84c0.23-0.2,0.74-0.64,0.74-0.64l-0.61,0.05   c-0.19-0.06-0.37-0.11-0.54-0.17c0.18,0.05,0.36,0.11,0.54,0.17c0,0,0,0,0,0l0,0l0.61-0.05c-1.3-1.35-2.47-4.02-4.44-4.02   c-1.87,0-3.08,0.9-3.21,3.01c-0.13,1.9,0.09,2.46,0.09,2.46l0.35-0.79l-0.35,0.79C19.7,20.72,20.81,20.05,21.46,19.94z M25.3,19.97   c0.05,0.02,0.11,0.03,0.16,0.05c-0.08-0.03-0.16-0.05-0.24-0.07C25.25,19.95,25.28,19.96,25.3,19.97z M19.62,20.32L19.62,20.32   c0.42-0.41,1.01-0.86,1.68-0.96c0.04-0.01,0.08-0.01,0.12-0.02c-0.04,0.01-0.08,0.01-0.12,0.02   C20.64,19.46,20.04,19.92,19.62,20.32L19.62,20.32z"/>
	<path class="st0" d="M21.94,30.5c0.2-0.8,0.29-2.72,0.29-2.72l-0.55,1.33v0l0,0c0,0,0,0,0,0l0.55-1.33c0,0-1.83,1.14-2.29,1.93   c-0.46,0.8-0.59,3.35-0.58,3.33l0.76-1.3l-0.77,1.32C19.99,31.97,21.72,31.28,21.94,30.5z M21.44,30.52   c0.03-0.05,0.05-0.11,0.07-0.18C21.48,30.41,21.46,30.47,21.44,30.52c-0.03,0.05-0.06,0.09-0.1,0.13   C21.38,30.6,21.41,30.56,21.44,30.52z M21.34,30.65c-0.23,0.26-0.63,0.49-0.96,0.75C20.71,31.14,21.11,30.92,21.34,30.65z"/>
	<path class="st0" d="M19.34,38.1c1.75-2.54,3.65-2.65,3.8-4.81c0.09-1.13-0.22-2.43-0.22-2.43l-0.02,0.08l0.02-0.08   c0,0-2.72,2.41-3.21,3.85C19.03,36.74,19.34,38.1,19.34,38.1l0.68-1.5v0c0.01-0.02,0.03-0.03,0.04-0.05   c0.03-0.04,0.06-0.08,0.09-0.11c-0.04,0.05-0.08,0.11-0.12,0.16L19.34,38.1z M22.65,33.54c0.01-0.04,0.02-0.09,0.03-0.13   c0,0,0,0,0,0v0c0-0.01,0-0.02,0-0.03c0.01-0.08,0.02-0.17,0.02-0.25c0,0.09-0.01,0.19-0.02,0.28c-0.01,0.05-0.02,0.1-0.03,0.15   C22.65,33.56,22.65,33.55,22.65,33.54z"/>
	<path class="st0" d="M35.98,41.41L35.98,41.41c0.62-0.65,1.06-1.24,1.06-1.24l-0.95,0.28c-0.23,0.28-0.55,0.64-0.91,0.96h0   c-0.04,0.04-0.09,0.08-0.14,0.12c0.38-0.34,0.73-0.71,0.99-1.01c0.02-0.02,0.04-0.05,0.06-0.07l0,0l0,0l0.94-0.28l-3.89-2.68   l-3.91,2.68l1.13,0.28c0.42,0.5,1.09,1.21,1.79,1.64c-0.3-0.19-0.6-0.42-0.87-0.68h0c-0.36-0.33-0.68-0.68-0.91-0.96l-1.14-0.28   c0,0,0.44,0.59,1.05,1.24h0c0.77,0.78,1.83,1.65,2.86,1.65C34.15,43.06,35.21,42.19,35.98,41.41z M32.17,42.09   c0.07,0.04,0.13,0.08,0.2,0.11C32.3,42.17,32.23,42.13,32.17,42.09z M32.39,42.22c0.07,0.04,0.14,0.07,0.21,0.1   C32.53,42.29,32.46,42.25,32.39,42.22z M33.24,42.46c-0.02,0-0.03,0-0.05,0C33.21,42.46,33.22,42.46,33.24,42.46   c0.01,0,0.03,0,0.04,0C33.26,42.46,33.25,42.46,33.24,42.46z"/>
	<path class="st0" d="M34.75,36.81l-0.82,0.26l3.72,2.38c0,0,2.52-1.67,2.52-3.56l-0.61,0.21c0,0,0,0.01,0,0.01c0,0,0-0.01,0-0.01   l0.61-0.21c0.03-1.4-3.16-2.48-3.16-2.48l-0.1,0.93l-2.97,0.5v2.23L34.75,36.81L34.75,36.81l2.98,1.91   c0.03-0.02,0.06-0.05,0.09-0.07c-0.03,0.02-0.06,0.05-0.09,0.07L34.75,36.81z M39.08,37.31c-0.1,0.15-0.21,0.29-0.33,0.42   C38.87,37.6,38.98,37.46,39.08,37.31z M38.51,38.01c-0.12,0.12-0.23,0.23-0.34,0.33C38.27,38.24,38.39,38.13,38.51,38.01z"/>
	<path class="st0" d="M24.98,16.73c1.14,1.37,2.1,3.65,5.35,3.31l-1.02-0.43c-1.31-0.35-2.01-0.98-2.45-1.49   c0.44,0.52,1.14,1.15,2.45,1.49l1.02,0.43c-0.56-0.44-1.62-2.25-1.62-2.25s-0.5-1.01-1.6-1.01C26.02,16.77,24.98,16.73,24.98,16.73   l1.41,0.78l0,0l0,0L24.98,16.73z"/>
	<path class="st0" d="M42.41,34.05L42.41,34.05C42.41,34.05,42.41,34.05,42.41,34.05L42.41,34.05c-0.01,0.01-0.55,0.91-0.66,1.84   c-0.32,2.66,3.63,6,3.17,8.41l0.54-2.01l-0.54,2.01c0,0,1.19-1.21,1.45-2.9h-0.18l0.18,0l0.01-0.16   C46.79,37.71,42.87,36.7,42.41,34.05L42.41,34.05z M45.77,41.4L45.77,41.4c-0.02,0.07-0.04,0.14-0.06,0.21   c0.18-0.64,0.13-1.24-0.05-1.79C45.82,40.31,45.88,40.84,45.77,41.4z M45.61,39.69c-0.04-0.1-0.08-0.19-0.12-0.29   C45.53,39.49,45.57,39.59,45.61,39.69z M42.61,35.88c-0.04-0.06-0.07-0.12-0.09-0.18C42.55,35.76,42.58,35.82,42.61,35.88z"/>
	<path class="st0" d="M26.03,21.54l-1.07,0.8c-0.55,0.52-2.15,0.48-3.33,0.56c1.13-0.07,2.65-0.05,3.26-0.51   c0.02-0.02,0.05-0.03,0.07-0.05l0,0l0,0L26.03,21.54c-1.14,0.53-3.3-0.81-4.72-0.3c-2.32,0.85-1.97,3.1-1.96,3.1l0.62-0.69   l-0.62,0.7C20.99,22.79,25.28,24.71,26.03,21.54z M20.76,23.01C20.76,23.01,20.76,23.01,20.76,23.01   C20.76,23.01,20.76,23.01,20.76,23.01L20.76,23.01z"/>
	<path class="st0" d="M32.71,20.03l-0.68-0.57c-0.03-0.01-0.07-0.02-0.1-0.03c0.03,0.01,0.07,0.03,0.1,0.03l0,0l0,0L32.71,20.03   c-0.6-0.94,0.1-3.26-1.71-3.26h-1.91l0,0C30.23,18.48,30.96,20.37,32.71,20.03z M31.91,19.42c-0.03-0.01-0.06-0.03-0.1-0.05   C31.85,19.39,31.88,19.41,31.91,19.42z M31.58,19.19c0.03,0.02,0.05,0.05,0.08,0.07C31.63,19.24,31.61,19.22,31.58,19.19z    M31.7,19.29c0.03,0.02,0.06,0.04,0.09,0.06C31.76,19.33,31.73,19.31,31.7,19.29z M31.36,18.98c-0.08-0.08-0.15-0.17-0.23-0.27   C31.21,18.81,31.28,18.9,31.36,18.98z M30.36,17.57c0.02,0.04,0.04,0.08,0.07,0.12c-0.04-0.06-0.07-0.12-0.1-0.16   C30.34,17.54,30.35,17.56,30.36,17.57z M30.51,17.83c-0.03-0.05-0.06-0.09-0.08-0.13C30.45,17.74,30.48,17.78,30.51,17.83z    M30.33,17.52L30.33,17.52L30.33,17.52L30.33,17.52l-0.56-0.34L30.33,17.52z"/>
</g>
</svg>